<?xml version="1.0" encoding="utf-8"?>
<!-- Generator: Adobe Illustrator 23.0.0, SVG Export Plug-In . SVG Version: 6.00 Build 0)  -->
<svg version="1.1" xmlns="http://www.w3.org/2000/svg" xmlns:xlink="http://www.w3.org/1999/xlink" x="0px" y="0px"
	 viewBox="0 0 613.76 616.8" style="enable-background:new 0 0 613.76 616.8;" xml:space="preserve">
<style type="text/css">
	.st0{fill:#FFFFFF;stroke:#04ADCE;stroke-width:3;stroke-miterlimit:10;}
	.st1{fill:#003964;}
	.st2{fill:#04ADCE;}
	.st3{fill:#FFFFFF;}
	.st4{clip-path:url(#SVGID_2_);}
	.st5{fill:#AC72AE;}
	.st6{fill:#FC6A6B;}
	.st7{fill:#F3AE23;}
	.st8{fill:#009E3D;}
	.st9{clip-path:url(#SVGID_4_);}
</style>
<g id="autorizado">
</g>
<g id="pulido">
	<g>
		<g>
			<g>
				<path class="st7" d="M192.22,86.3c35.44-30.93,83.79-46.54,130.62-41.91c-2.23,9.24-4.51,18.47-6.69,27.72
					c-0.23,0.85-0.42,1.79-1.1,2.42c-17.15,17.17-34.32,34.32-51.47,51.47c-6.61-5.46-15.25-8.46-23.85-8.03
					c-12.64,0.15-24.65,8.04-30.22,19.33c-6.19,12.19-4.39,27.88,4.43,38.34c-13.66,13.66-27.3,27.34-41,40.98
					c-2.68-2.66-5.35-5.33-8-8.03c-0.64-0.59-1.25-1.32-2.14-1.51c-9.79-2.41-19.62-4.7-29.42-7.14c1.4-13.53,4.16-26.94,8.56-39.82
					C151.67,131.59,169.47,106.01,192.22,86.3z"/>
				<path class="st7" d="M235.64,121.55c7.67-1.23,15.83,0.24,22.39,4.49c7.28,4.55,12.58,12.16,14.26,20.59
					c1.83,8.38-0.07,17.44-4.92,24.49c-4.92,7.22-12.87,12.28-21.52,13.56c-8.89,1.48-18.29-1.23-25.19-6.97
					c-7.82-6.37-12.29-16.59-11.53-26.65C209.77,136.65,221.45,123.8,235.64,121.55z"/>
			</g>
			<g>
				<path class="st6" d="M325.94,45.43c21.4,2.2,42.52,7.96,61.67,17.87c40.2,20.61,71.71,57.49,85.76,100.43
					c7.59,22.56,10.11,46.66,8.27,70.35c-0.02,0.21-0.03,0.41-0.05,0.62c-0.02,0.22-0.62-0.08-2.06-0.3
					c-0.25-0.06-0.49-0.12-0.74-0.18c-8.57-2.04-17.13-4.14-25.69-6.21c-0.99-0.17-1.8-0.74-2.46-1.45
					c-16.74-17.14-33.81-33.98-50.75-50.94c5.46-6.63,8.45-15.24,8.05-23.84c-0.26-12.73-8.2-24.89-19.68-30.36
					c-12.15-6.02-27.6-4.15-38.01,4.52c-13.67-13.63-27.32-27.27-40.95-40.95c2.8-2.87,5.67-5.66,8.49-8.51
					c1.22-1.09,1.23-2.85,1.66-4.31C321.59,63.27,323.75,54.35,325.94,45.43z"/>
				<path class="st6" d="M368.57,121.39c6.73-0.83,13.73,0.38,19.66,3.71c8.71,4.8,14.98,13.82,16.23,23.71
					c1.53,10.68-2.86,21.98-11.22,28.8c-3.95,3.3-8.7,5.69-13.75,6.72c-10.51,2.38-22.16-1.13-29.54-9
					c-10.72-10.39-12.12-28.57-3.29-40.58C351.67,127.5,359.82,122.54,368.57,121.39z"/>
			</g>
			<g>
				<path class="st8" d="M132.33,203.01c9.79,2.47,19.62,4.7,29.4,7.18c2.45,1.77,4.31,4.25,6.46,6.37
					c15.23,15.26,30.51,30.47,45.72,45.74c-5.26,6.52-8.35,14.85-8,23.27c-0.04,12.67,7.67,24.88,18.95,30.54
					c12.21,6.47,28.16,4.76,38.69-4.19c19.47,19.46,38.92,38.94,58.4,58.38c0.74,0.65,1.2,1.53,1.36,2.5
					c1.47,6.36,3.13,12.68,4.57,19.04c-24.19,3.15-48.95,1.11-72.4-5.52c-40.74-11.86-76.22-39.83-98.25-75.98
					C137.65,278.51,128.75,240.22,132.33,203.01z"/>
				<path class="st8" d="M235.32,253.4c7-1.29,14.42-0.12,20.7,3.24c8.25,4.43,14.45,12.58,16.3,21.79
					c1.94,9.03-0.41,18.86-6.15,26.1c-4,5.19-9.68,9.06-15.96,10.94c-9.24,2.85-19.76,1.17-27.6-4.49
					c-6.25-4.43-10.91-11.11-12.66-18.58c-2.21-9.11-0.24-19.18,5.48-26.64C220.2,259.32,227.46,254.85,235.32,253.4z"/>
			</g>
			<g>
				<path class="st5" d="M399.54,262.33c13.7-13.75,27.45-27.45,41.16-41.19c3.25,3.1,6.23,6.5,9.63,9.44
					c10.03,2.71,20.22,4.9,30.31,7.46c-2.68,27.76-12.13,54.89-27.72,78.06c-22.98,34.74-58.75,60.77-98.91,71.81
					c-7.38,1.96-14.87,3.77-22.47,4.6c-0.05,0.01-0.14,0.02-0.14,0.02s0,0-0.05-0.16c-0.02-0.09-0.04-0.18-0.06-0.27
					c-1.61-6.99-3.4-13.93-5.03-20.91c-0.2-1.95-1.86-3.1-3.1-4.38c-4.73-4.7-9.42-9.42-14.14-14.12
					c13.72-13.74,27.44-27.46,41.18-41.18c6.84,5.8,15.91,8.86,24.87,8.25c12.8-0.7,24.77-9.11,29.79-20.91
					C410.22,286.97,407.99,272.23,399.54,262.33z"/>
				<path class="st5" d="M368.65,252.95c8.47-1.1,17.38,1.25,24.06,6.6c7.49,5.8,12.09,15.08,12.23,24.55
					c0.28,8.51-3.05,17.05-8.97,23.15c-6.31,6.61-15.53,10.27-24.65,9.74c-13.05-0.33-25.21-9.63-29.1-22.07
					c-3.14-9.55-1.57-20.56,4.34-28.72C351.66,258.97,359.85,254,368.65,252.95z"/>
			</g>
		</g>
		<path class="st1" d="M367.01,186.39l-17.58,1.35c-0.35,10.05-4.07,20.03-11.27,28.14c-8.84,9.95-21.13,15.02-33.47,15.02
			c-10.57,0-21.19-3.73-29.71-11.3c-7.67-6.82-12.44-15.69-14.22-25.05l-12.75,0.98c0,0-3.52,18.25,16.96,41.8
			c20.49,23.55,12.11,73.56,12.11,73.56l65.1,0.41c0,0-37.16-48.39-2.41-76.96C374.51,205.75,367.01,186.39,367.01,186.39z"/>
		<g>
			<path class="st1" d="M304.69,216.2c-7.36,0-14.45-2.7-19.96-7.59c-6-5.33-9.57-12.69-10.04-20.7
				c-0.47-8.01,2.21-15.73,7.54-21.73c5.7-6.41,13.89-10.09,22.48-10.09c7.36,0,14.45,2.7,19.96,7.59c6,5.33,9.57,12.69,10.04,20.7
				c0.47,8.01-2.21,15.73-7.54,21.73C321.47,212.52,313.27,216.2,304.69,216.2C304.69,216.2,304.69,216.2,304.69,216.2z"/>
		</g>
		<g>
			<path class="st2" d="M242.09,216.68c3.23,3.23,4.85,7.13,4.85,11.7c0,4.57-1.62,8.47-4.85,11.7c-3.23,3.23-7.13,4.85-11.7,4.85
				c-4.57,0-8.47-1.62-11.7-4.85c-3.23-3.23-4.85-7.13-4.85-11.7c0-4.57,1.62-8.47,4.85-11.7c3.23-3.23,7.13-4.85,11.7-4.85
				C234.96,211.83,238.86,213.45,242.09,216.68z M230.39,216.06c-3.41,0-6.32,1.2-8.72,3.61c-2.4,2.4-3.61,5.31-3.61,8.72
				c0,3.41,1.21,6.32,3.62,8.73c2.41,2.41,5.31,3.62,8.71,3.62c3.41,0,6.31-1.21,8.72-3.62c2.4-2.41,3.61-5.32,3.61-8.73
				c0-3.41-1.2-6.31-3.61-8.72S233.8,216.06,230.39,216.06z"/>
			<path class="st2" d="M392.86,236.89l3.13,2.81c-3.83,3.49-7.87,5.23-12.15,5.23c-4.57,0-8.46-1.61-11.68-4.83
				c-3.22-3.22-4.83-7.11-4.83-11.68c0-4.55,1.61-8.45,4.83-11.68c3.22-3.23,7.11-4.85,11.68-4.85c4.27,0,8.32,1.74,12.15,5.23
				l-3.13,2.85c-2.88-2.56-5.89-3.84-9.01-3.84c-3.38,0-6.27,1.2-8.68,3.6c-2.4,2.4-3.61,5.29-3.61,8.69c0,3.41,1.2,6.31,3.61,8.71
				c2.4,2.4,5.3,3.6,8.68,3.6C386.97,240.73,389.97,239.45,392.86,236.89z"/>
		</g>
		<g>
			<g>
				<g>
					<path class="st2" d="M90.92,460.74c2.32,2.32,3.47,5.11,3.47,8.38c0,3.27-1.16,6.06-3.47,8.38c-2.32,2.32-5.11,3.47-8.38,3.47
						c-3.27,0-6.06-1.16-8.38-3.47c-2.32-2.32-3.47-5.11-3.47-8.38c0-3.27,1.16-6.06,3.47-8.38c2.32-2.32,5.11-3.47,8.38-3.47
						C85.81,457.27,88.61,458.43,90.92,460.74z M82.54,460.3c-2.44,0-4.52,0.86-6.25,2.58c-1.72,1.72-2.58,3.8-2.58,6.25
						c0,2.44,0.86,4.53,2.59,6.25c1.73,1.73,3.81,2.59,6.24,2.59c2.44,0,4.52-0.86,6.25-2.59c1.72-1.73,2.58-3.81,2.58-6.25
						c0-2.44-0.86-4.52-2.58-6.25C87.07,461.16,84.98,460.3,82.54,460.3z"/>
					<path class="st2" d="M104.12,473.32h-2.74v7.41h-3v-23.16h6.57c1.86,0.25,3.44,1.02,4.72,2.3c1.53,1.54,2.3,3.4,2.3,5.56
						c0,2.18-0.77,4.04-2.3,5.59c-1.06,1.06-1.87,1.66-2.43,1.79l5.14,7.92h-3.63L104.12,473.32z M101.39,460.58v9.73h2.74
						c1.33,0,2.47-0.48,3.42-1.43c0.95-0.95,1.43-2.1,1.43-3.45c0-1.34-0.48-2.48-1.43-3.43c-0.95-0.94-2.09-1.42-3.42-1.42H101.39z
						"/>
					<path class="st2" d="M134.98,477.56c-2.38,2.28-5.11,3.42-8.18,3.42c-3.27,0-6.06-1.15-8.37-3.46
						c-2.31-2.31-3.46-5.1-3.46-8.37c0-3.26,1.15-6.05,3.46-8.37c2.31-2.32,5.1-3.47,8.37-3.47c3.06,0,5.96,1.25,8.7,3.75
						l-2.24,2.04c-2.06-1.83-4.22-2.75-6.46-2.75c-2.42,0-4.49,0.86-6.22,2.58c-1.72,1.72-2.58,3.79-2.58,6.22
						c0,2.44,0.86,4.52,2.58,6.24c1.72,1.72,3.79,2.58,6.22,2.58c2.08,0,3.81-0.55,5.18-1.65v-6.99h3V477.56z"/>
					<path class="st2" d="M148.08,457.57l8.42,23.16h-3.18l-2.98-8.19h-6.14l-2.97,8.19h-3.2l8.42-23.16H148.08z M149.25,469.54
						l-1.98-5.43l-1.97,5.43H149.25z"/>
					<path class="st2" d="M159.4,457.57h2.74l9.55,16.53v-16.53h3.01v23.16h-2.62L162.4,464v16.73h-3V457.57z"/>
					<path class="st2" d="M182.32,457.57v23.16h-3v-23.16H182.32z"/>
					<path class="st2" d="M198.61,460.57h-10.97v-3h16.15l-11.65,20.15h11v3.01h-16.17L198.61,460.57z"/>
					<path class="st2" d="M216.74,457.57l8.42,23.16h-3.18l-2.98-8.19h-6.14l-2.97,8.19h-3.2l8.42-23.16H216.74z M217.92,469.54
						l-1.98-5.43l-1.97,5.43H217.92z"/>
					<path class="st2" d="M245.4,475.22l2.24,2.01c-2.74,2.5-5.64,3.75-8.7,3.75c-3.27,0-6.06-1.15-8.37-3.46
						c-2.31-2.31-3.46-5.1-3.46-8.37c0-3.26,1.15-6.05,3.46-8.37c2.31-2.32,5.1-3.47,8.37-3.47c3.06,0,5.96,1.25,8.7,3.75
						l-2.24,2.04c-2.06-1.83-4.22-2.75-6.46-2.75c-2.42,0-4.49,0.86-6.22,2.58c-1.72,1.72-2.58,3.79-2.58,6.22
						c0,2.44,0.86,4.52,2.58,6.24c1.72,1.72,3.79,2.58,6.22,2.58C241.18,477.97,243.34,477.05,245.4,475.22z"/>
					<path class="st2" d="M254.53,457.57v23.16h-3v-23.16H254.53z"/>
					<path class="st2" d="M279.05,460.74c2.32,2.32,3.47,5.11,3.47,8.38c0,3.27-1.16,6.06-3.47,8.38c-2.32,2.32-5.11,3.47-8.38,3.47
						c-3.27,0-6.06-1.16-8.38-3.47c-2.32-2.32-3.47-5.11-3.47-8.38c0-3.27,1.16-6.06,3.47-8.38c2.32-2.32,5.11-3.47,8.38-3.47
						C273.94,457.27,276.74,458.43,279.05,460.74z M270.67,460.3c-2.44,0-4.52,0.86-6.25,2.58c-1.72,1.72-2.58,3.8-2.58,6.25
						c0,2.44,0.86,4.53,2.59,6.25c1.73,1.73,3.81,2.59,6.24,2.59c2.44,0,4.52-0.86,6.25-2.59c1.72-1.73,2.58-3.81,2.58-6.25
						c0-2.44-0.86-4.52-2.58-6.25C275.2,461.16,273.11,460.3,270.67,460.3z M271.56,452.1h3.65l-3.94,4.04h-2.85L271.56,452.1z"/>
					<path class="st2" d="M286.52,457.57h2.74l9.55,16.53v-16.53h3.01v23.16h-2.62L289.52,464v16.73h-3V457.57z"/>
					<path class="st1" d="M319.69,457.57v23.16h-3v-23.16H319.69z"/>
					<path class="st1" d="M324.34,457.57h2.74l9.55,16.53v-16.53h3.01v23.16h-2.62L327.34,464v16.73h-3V457.57z"/>
					<path class="st1" d="M350.94,460.57v20.16h-3.01v-20.16h-5.4v-3h13.81v3H350.94z"/>
					<path class="st1" d="M371.71,457.57v3h-9.48v7.08h9.48v3h-9.48v7.08h9.48v3.01h-12.48v-23.16H371.71z"/>
					<path class="st1" d="M381.43,473.32h-2.74v7.41h-3v-23.16h6.57c1.86,0.25,3.44,1.02,4.72,2.3c1.53,1.54,2.3,3.4,2.3,5.56
						c0,2.18-0.77,4.04-2.3,5.59c-1.06,1.06-1.87,1.66-2.43,1.79l5.14,7.92h-3.63L381.43,473.32z M378.69,460.58v9.73h2.74
						c1.33,0,2.47-0.48,3.42-1.43c0.95-0.95,1.43-2.1,1.43-3.45c0-1.34-0.48-2.48-1.43-3.43c-0.95-0.94-2.09-1.42-3.42-1.42H378.69z
						"/>
					<path class="st1" d="M392.64,457.57h2.74l9.55,16.53v-16.53h3.01v23.16h-2.62L395.64,464v16.73h-3V457.57z"/>
					<path class="st1" d="M420.88,457.57l8.42,23.16h-3.18l-2.98-8.19H417l-2.97,8.19h-3.2l8.42-23.16H420.88z M422.05,469.54
						l-1.98-5.43l-1.97,5.43H422.05z"/>
					<path class="st1" d="M449.54,475.22l2.24,2.01c-2.74,2.5-5.64,3.75-8.7,3.75c-3.27,0-6.06-1.15-8.37-3.46
						c-2.31-2.31-3.46-5.1-3.46-8.37c0-3.26,1.15-6.05,3.46-8.37c2.31-2.32,5.1-3.47,8.37-3.47c3.06,0,5.96,1.25,8.7,3.75
						l-2.24,2.04c-2.06-1.83-4.22-2.75-6.46-2.75c-2.42,0-4.49,0.86-6.22,2.58c-1.72,1.72-2.58,3.79-2.58,6.22
						c0,2.44,0.86,4.52,2.58,6.24c1.72,1.72,3.79,2.58,6.22,2.58C445.32,477.97,447.47,477.05,449.54,475.22z"/>
					<path class="st1" d="M458.67,457.57v23.16h-3v-23.16H458.67z"/>
					<path class="st1" d="M483.19,460.74c2.32,2.32,3.47,5.11,3.47,8.38c0,3.27-1.16,6.06-3.47,8.38c-2.32,2.32-5.11,3.47-8.38,3.47
						c-3.27,0-6.06-1.16-8.38-3.47c-2.32-2.32-3.47-5.11-3.47-8.38c0-3.27,1.16-6.06,3.47-8.38c2.32-2.32,5.11-3.47,8.38-3.47
						C478.08,457.27,480.87,458.43,483.19,460.74z M474.81,460.3c-2.44,0-4.52,0.86-6.25,2.58c-1.72,1.72-2.58,3.8-2.58,6.25
						c0,2.44,0.86,4.53,2.59,6.25c1.73,1.73,3.81,2.59,6.24,2.59c2.44,0,4.52-0.86,6.25-2.59c1.72-1.73,2.58-3.81,2.58-6.25
						c0-2.44-0.86-4.52-2.58-6.25C479.33,461.16,477.25,460.3,474.81,460.3z"/>
					<path class="st1" d="M490.66,457.57h2.74l9.55,16.53v-16.53h3.01v23.16h-2.62L493.65,464v16.73h-3V457.57z"/>
					<path class="st1" d="M518.9,457.57l8.42,23.16h-3.18l-2.98-8.19h-6.14l-2.97,8.19h-3.2l8.42-23.16H518.9z M520.07,469.54
						l-1.98-5.43l-1.97,5.43H520.07z"/>
					<path class="st1" d="M530.21,480.73v-23.16h3v20.15h8.28v3.01H530.21z"/>
				</g>
			</g>
			<g>
				<path class="st1" d="M124.99,543.26l6.66,5.99c-8.16,7.41-16.79,11.11-25.88,11.09c-9.72-0.02-18-3.46-24.84-10.33
					c-6.84-6.87-10.25-15.16-10.23-24.88c0.02-9.69,3.46-17.97,10.33-24.84c6.87-6.87,15.16-10.29,24.88-10.28
					c9.09,0.02,17.7,3.75,25.83,11.19l-6.68,6.05c-6.13-5.46-12.52-8.2-19.17-8.21c-7.2-0.01-13.36,2.53-18.49,7.62
					c-5.13,5.1-7.7,11.26-7.72,18.48c-0.01,7.26,2.53,13.44,7.64,18.55c5.11,5.12,11.26,7.68,18.46,7.69
					C112.44,551.41,118.84,548.7,124.99,543.26z"/>
				<path class="st1" d="M201.51,500.4c6.87,6.9,10.29,15.21,10.28,24.93c-0.02,9.72-3.48,18.02-10.37,24.89
					c-6.9,6.87-15.21,10.29-24.93,10.27c-9.72-0.02-18.02-3.48-24.89-10.37c-6.87-6.9-10.29-15.21-10.28-24.93
					c0.02-9.72,3.48-18.02,10.37-24.89c6.9-6.87,15.21-10.29,24.93-10.28C186.35,490.04,194.64,493.5,201.51,500.4z M176.61,499.02
					c-7.26-0.01-13.45,2.53-18.58,7.64c-5.13,5.11-7.7,11.29-7.72,18.55c-0.01,7.26,2.54,13.46,7.66,18.6
					c5.12,5.14,11.3,7.72,18.53,7.74c7.25,0.01,13.45-2.54,18.58-7.66c5.13-5.12,7.7-11.31,7.72-18.57
					c0.01-7.25-2.53-13.45-7.64-18.58S183.86,499.03,176.61,499.02z"/>
				<path class="st1" d="M246.7,491.07l24.9,68.88l-9.46-0.02l-8.81-24.37l-18.24-0.04l-8.87,24.33l-9.51-0.02l25.17-68.78
					L246.7,491.07z M250.11,526.65l-5.86-16.14l-5.88,16.12L250.11,526.65z"/>
				<path class="st1" d="M331.77,543.67l6.66,5.99c-8.16,7.41-16.79,11.11-25.88,11.09c-9.72-0.02-18-3.46-24.84-10.33
					c-6.84-6.87-10.25-15.16-10.23-24.88c0.02-9.69,3.46-17.98,10.33-24.84c6.87-6.87,15.16-10.29,24.88-10.28
					c9.09,0.02,17.7,3.75,25.83,11.19l-6.68,6.05c-6.13-5.46-12.52-8.2-19.17-8.21c-7.2-0.01-13.36,2.53-18.49,7.62
					c-5.13,5.09-7.7,11.26-7.72,18.48c-0.01,7.26,2.53,13.44,7.64,18.56c5.11,5.12,11.26,7.68,18.46,7.69
					C319.22,551.82,325.62,549.11,331.77,543.67z"/>
				<path class="st1" d="M358.08,531.64l-0.06,28.48l-8.9-0.02l0.14-68.83l8.9,0.02l-0.06,31.45l21.25,0.04l0.06-31.45l8.9,0.02
					l-0.14,68.83l-8.9-0.02l0.06-28.48L358.08,531.64z"/>
				<path class="st1" d="M410.99,491.39l-0.14,68.83l-8.91-0.02l0.14-68.83L410.99,491.39z"/>
				<path class="st1" d="M424.79,491.42l8.13,0.02l28.29,49.18l0.1-49.13l8.95,0.02l-0.14,68.83l-7.79-0.02l-28.68-49.79l-0.1,49.73
					l-8.9-0.02L424.79,491.42z"/>
				<path class="st1" d="M541.43,551.05c-7.1,6.75-15.21,10.12-24.33,10.1c-9.72-0.02-18-3.46-24.84-10.33
					c-6.84-6.87-10.25-15.16-10.23-24.88c0.02-9.69,3.46-17.97,10.33-24.84c6.87-6.87,15.16-10.3,24.88-10.28
					c9.09,0.02,17.7,3.75,25.83,11.19l-6.68,6.05c-6.13-5.46-12.52-8.2-19.17-8.21c-7.2-0.01-13.36,2.53-18.49,7.62
					c-5.13,5.1-7.7,11.26-7.72,18.48c-0.01,7.26,2.53,13.44,7.64,18.56c5.11,5.12,11.26,7.68,18.46,7.69
					c6.2,0.01,11.33-1.61,15.41-4.87l0.04-20.78l8.9,0.02L541.43,551.05z"/>
			</g>
			<g>
				<path class="st2" d="M91.17,512.5c4.03,0.02,7.18,1.16,9.44,3.43c2.47,2.49,3.71,5.49,3.71,8.99c0,3.51-1.24,6.5-3.71,8.98
					c-2.26,2.27-5.4,3.41-9.44,3.43h-2.36V512.5H91.17z M92.02,515.77v18.3c2.56,0,4.65-0.82,6.28-2.47
					c1.84-1.84,2.76-4.07,2.76-6.69c0-2.61-0.92-4.84-2.76-6.69C96.67,516.59,94.58,515.77,92.02,515.77z"/>
				<path class="st2" d="M121.58,512.5v3.21h-10.16v7.59h10.16v3.21h-10.16v7.59h10.16v3.23h-13.38V512.5H121.58z"/>
			</g>
		</g>
	</g>
</g>
</svg>
