<?xml version="1.0" encoding="utf-8"?>
<!-- Generator: Adobe Illustrator 23.0.0, SVG Export Plug-In . SVG Version: 6.00 Build 0)  -->
<svg version="1.1" xmlns="http://www.w3.org/2000/svg" xmlns:xlink="http://www.w3.org/1999/xlink" x="0px" y="0px"
	 viewBox="0 0 1200 552" style="enable-background:new 0 0 1200 552;" xml:space="preserve">
<style type="text/css">
	.st0{fill:#FFFFFF;stroke:#04ADCE;stroke-width:3;stroke-miterlimit:10;}
	.st1{fill:#003964;}
	.st2{fill:#04ADCE;}
	.st3{fill:#FFFFFF;}
	.st4{clip-path:url(#SVGID_2_);}
	.st5{fill:#AC72AE;}
	.st6{fill:#FC6A6B;}
	.st7{fill:#F3AE23;}
	.st8{fill:#009E3D;}
	.st9{clip-path:url(#SVGID_4_);}
</style>
<g id="autorizado">
</g>
<g id="pulido">
	<g>
		<g>
			<g>
				<path class="st1" d="M982.79,374.39c1.93,0,1.93-3,0-3C980.86,371.39,980.86,374.39,982.79,374.39L982.79,374.39z"/>
			</g>
		</g>
		<g>
			<g>
				<path class="st7" d="M157.8,123.43c40.92-35.71,96.74-53.74,150.81-48.38c-2.58,10.66-5.21,21.32-7.72,32
					c-0.27,0.98-0.49,2.07-1.27,2.79c-19.8,19.82-39.62,39.62-59.43,59.43c-7.64-6.31-17.61-9.77-27.53-9.27
					c-14.59,0.17-28.46,9.28-34.89,22.32c-7.14,14.07-5.07,32.19,5.11,44.26c-15.77,15.77-31.52,31.57-47.33,47.31
					c-3.09-3.07-6.18-6.15-9.24-9.27c-0.74-0.68-1.44-1.52-2.47-1.74c-11.31-2.78-22.66-5.43-33.96-8.24
					c1.61-15.62,4.81-31.11,9.88-45.97C110.98,175.71,131.54,146.18,157.8,123.43z"/>
				<path class="st7" d="M207.93,164.13c8.86-1.41,18.27,0.28,25.85,5.18c8.41,5.26,14.53,14.04,16.47,23.77
					c2.12,9.67-0.08,20.14-5.68,28.28c-5.67,8.33-14.86,14.18-24.84,15.65c-10.26,1.71-21.12-1.41-29.08-8.05
					c-9.02-7.35-14.19-19.15-13.31-30.77C178.06,181.56,191.54,166.72,207.93,164.13z"/>
			</g>
			<g>
				<path class="st6" d="M312.18,76.25c24.7,2.54,49.09,9.19,71.19,20.63c46.41,23.79,82.8,66.37,99.01,115.95
					c8.76,26.05,11.67,53.87,9.54,81.23c-0.02,0.24-0.04,0.48-0.06,0.72c-0.02,0.25-0.72-0.1-2.38-0.34
					c-0.28-0.07-0.57-0.14-0.85-0.2c-9.89-2.36-19.78-4.79-29.66-7.16c-1.15-0.19-2.07-0.86-2.84-1.67
					c-19.33-19.79-39.04-39.23-58.59-58.81c6.31-7.65,9.75-17.6,9.29-27.52c-0.3-14.7-9.47-28.74-22.72-35.06
					c-14.02-6.95-31.86-4.79-43.88,5.22c-15.78-15.73-31.54-31.49-47.27-47.27c3.23-3.31,6.54-6.53,9.8-9.82
					c1.41-1.26,1.42-3.29,1.92-4.98C307.16,96.84,309.65,86.54,312.18,76.25z"/>
				<path class="st6" d="M361.4,163.94c7.77-0.96,15.85,0.43,22.7,4.29c10.06,5.54,17.29,15.96,18.73,27.38
					c1.77,12.33-3.31,25.37-12.95,33.25c-4.56,3.81-10.04,6.57-15.88,7.76c-12.14,2.75-25.58-1.31-34.1-10.4
					c-12.38-12-13.99-32.98-3.8-46.85C341.89,170.99,351.3,165.26,361.4,163.94z"/>
			</g>
			<g>
				<path class="st8" d="M88.66,258.18c11.3,2.85,22.66,5.42,33.94,8.3c2.83,2.05,4.98,4.9,7.45,7.36
					c17.59,17.61,35.22,35.18,52.78,52.81c-6.07,7.52-9.64,17.15-9.23,26.86c-0.04,14.63,8.85,28.72,21.87,35.26
					c14.09,7.47,32.51,5.5,44.67-4.84c22.48,22.46,44.93,44.96,67.42,67.4c0.85,0.75,1.38,1.76,1.57,2.89
					c1.7,7.34,3.61,14.64,5.28,21.99c-27.92,3.64-56.51,1.28-83.59-6.38c-47.04-13.69-88-45.98-113.43-87.72
					C94.79,345.34,84.52,301.13,88.66,258.18z"/>
				<path class="st8" d="M207.56,316.35c8.08-1.48,16.64-0.14,23.9,3.74c9.53,5.11,16.69,14.53,18.82,25.15
					c2.24,10.43-0.48,21.78-7.1,30.14c-4.62,6-11.18,10.46-18.42,12.63c-10.66,3.29-22.81,1.35-31.86-5.19
					c-7.21-5.11-12.59-12.82-14.62-21.45c-2.55-10.52-0.28-22.14,6.33-30.76C190.1,323.19,198.48,318.02,207.56,316.35z"/>
			</g>
			<g>
				<path class="st5" d="M397.15,326.66c15.82-15.87,31.69-31.69,47.52-47.55c3.76,3.57,7.19,7.51,11.12,10.9
					c11.58,3.12,23.35,5.66,34.99,8.62c-3.1,32.05-14,63.38-32,90.12c-26.53,40.11-67.83,70.16-114.2,82.91
					c-8.52,2.27-17.17,4.35-25.94,5.31c-0.05,0.01-0.16,0.02-0.16,0.02s0,0-0.06-0.18c-0.02-0.1-0.05-0.2-0.07-0.31
					c-1.86-8.07-3.93-16.08-5.81-24.15c-0.23-2.25-2.14-3.57-3.58-5.06c-5.46-5.42-10.87-10.88-16.33-16.3
					c15.84-15.86,31.68-31.71,47.54-47.54c7.9,6.7,18.37,10.23,28.71,9.53c14.78-0.81,28.6-10.52,34.4-24.14
					C409.48,355.11,406.91,338.09,397.15,326.66z"/>
				<path class="st5" d="M361.49,315.83c9.78-1.28,20.06,1.44,27.78,7.62c8.64,6.7,13.96,17.41,14.12,28.34
					c0.32,9.82-3.52,19.68-10.36,26.73c-7.29,7.63-17.93,11.85-28.46,11.25c-15.07-0.38-29.1-11.12-33.6-25.48
					c-3.63-11.03-1.81-23.74,5.02-33.16C341.88,322.78,351.34,317.04,361.49,315.83z"/>
			</g>
		</g>
		<path class="st1" d="M359.59,238.98l-20.3,1.56c-0.41,11.6-4.7,23.13-13.02,32.48c-10.21,11.49-24.39,17.35-38.64,17.35
			c-12.21,0-24.46-4.3-34.31-13.05c-8.86-7.87-14.36-18.12-16.42-28.92l-14.73,1.13c0,0-4.07,21.07,19.58,48.26
			c23.65,27.19,13.99,84.93,13.99,84.93l75.16,0.47c0,0-42.9-55.87-2.78-88.86C368.26,261.34,359.59,238.98,359.59,238.98z"/>
		<g>
			<path class="st1" d="M287.65,273.4c-8.5,0-16.68-3.11-23.04-8.76c-6.93-6.16-11.04-14.65-11.59-23.9
				c-0.54-9.25,2.55-18.16,8.7-25.09c6.58-7.4,16.04-11.65,25.95-11.65c8.5,0,16.68,3.11,23.04,8.76
				c6.93,6.16,11.04,14.65,11.59,23.9c0.54,9.25-2.55,18.16-8.7,25.09C307.02,269.15,297.56,273.4,287.65,273.4
				C287.65,273.4,287.65,273.4,287.65,273.4z"/>
		</g>
		<g>
			<path class="st2" d="M215.38,273.96c3.73,3.73,5.6,8.24,5.6,13.51s-1.87,9.78-5.6,13.51c-3.73,3.73-8.24,5.6-13.51,5.6
				c-5.27,0-9.78-1.87-13.51-5.6c-3.73-3.73-5.6-8.24-5.6-13.51s1.87-9.78,5.6-13.51c3.73-3.73,8.24-5.6,13.51-5.6
				C207.14,268.36,211.64,270.23,215.38,273.96z M201.87,273.24c-3.94,0-7.29,1.39-10.07,4.16c-2.78,2.78-4.16,6.13-4.16,10.07
				c0,3.94,1.39,7.3,4.18,10.08c2.78,2.78,6.14,4.18,10.06,4.18c3.93,0,7.29-1.39,10.07-4.18c2.78-2.78,4.16-6.14,4.16-10.08
				c0-3.93-1.39-7.29-4.16-10.07S205.8,273.24,201.87,273.24z"/>
			<path class="st2" d="M389.44,297.29l3.62,3.24c-4.42,4.03-9.09,6.04-14.02,6.04c-5.27,0-9.77-1.86-13.49-5.58
				c-3.72-3.72-5.58-8.21-5.58-13.49c0-5.26,1.86-9.75,5.58-13.49c3.72-3.73,8.21-5.6,13.49-5.6c4.93,0,9.6,2.01,14.02,6.04
				l-3.62,3.29c-3.33-2.95-6.8-4.43-10.41-4.43c-3.9,0-7.24,1.38-10.02,4.15c-2.78,2.77-4.16,6.11-4.16,10.03
				c0,3.94,1.39,7.29,4.16,10.06c2.78,2.77,6.12,4.15,10.02,4.15C382.64,301.72,386.11,300.25,389.44,297.29z"/>
		</g>
		<g>
			<g>
				<g>
					<path class="st2" d="M590.22,229.03c2.67,2.67,4.01,5.9,4.01,9.68c0,3.78-1.34,7-4.01,9.68c-2.67,2.67-5.9,4.01-9.68,4.01
						c-3.78,0-7-1.34-9.68-4.01c-2.67-2.67-4.01-5.9-4.01-9.68c0-3.78,1.34-7,4.01-9.68c2.67-2.67,5.9-4.01,9.68-4.01
						C584.33,225.02,587.55,226.36,590.22,229.03z M580.55,228.51c-2.82,0-5.22,0.99-7.21,2.98c-1.99,1.99-2.98,4.39-2.98,7.21
						c0,2.82,1,5.22,2.99,7.22c1.99,1.99,4.39,2.99,7.2,2.99c2.82,0,5.22-1,7.21-2.99c1.99-1.99,2.98-4.4,2.98-7.22
						c0-2.82-0.99-5.22-2.98-7.21C585.77,229.51,583.37,228.51,580.55,228.51z"/>
					<path class="st2" d="M605.46,243.55h-3.16v8.56h-3.46v-26.74h7.59c2.15,0.29,3.97,1.18,5.45,2.66
						c1.77,1.78,2.66,3.92,2.66,6.42c0,2.52-0.89,4.67-2.66,6.45c-1.23,1.23-2.16,1.92-2.81,2.07l5.93,9.14h-4.19L605.46,243.55z
						 M602.31,228.85v11.23h3.16c1.54,0,2.85-0.55,3.95-1.65c1.1-1.1,1.65-2.43,1.65-3.99c0-1.55-0.55-2.87-1.65-3.96
						c-1.1-1.09-2.41-1.64-3.95-1.64H602.31z"/>
					<path class="st2" d="M641.09,248.45c-2.75,2.63-5.9,3.94-9.44,3.94c-3.78,0-7-1.33-9.66-3.99c-2.66-2.66-3.99-5.88-3.99-9.66
						c0-3.77,1.33-6.99,3.99-9.66c2.66-2.67,5.88-4.01,9.66-4.01c3.53,0,6.88,1.44,10.04,4.33l-2.59,2.36
						c-2.38-2.12-4.87-3.18-7.45-3.18c-2.8,0-5.19,0.99-7.18,2.97c-1.99,1.98-2.98,4.38-2.98,7.19c0,2.82,0.99,5.22,2.98,7.2
						s4.38,2.97,7.18,2.97c2.41,0,4.4-0.64,5.98-1.9v-8.07h3.46V248.45z"/>
					<path class="st2" d="M656.21,225.37l9.72,26.74h-3.68l-3.44-9.46h-7.09l-3.42,9.46h-3.69l9.73-26.74H656.21z M657.57,239.19
						l-2.29-6.27l-2.27,6.27H657.57z"/>
					<path class="st2" d="M669.28,225.37h3.16l11.03,19.08v-19.08h3.48v26.74h-3.03l-11.18-19.32v19.32h-3.46V225.37z"/>
					<path class="st2" d="M695.75,225.37v26.74h-3.46v-26.74H695.75z"/>
					<path class="st2" d="M714.55,228.83h-12.67v-3.46h18.65l-13.45,23.26h12.7v3.48h-18.66L714.55,228.83z"/>
					<path class="st2" d="M735.49,225.37l9.72,26.74h-3.68l-3.44-9.46h-7.09l-3.42,9.46h-3.69l9.73-26.74H735.49z M736.84,239.19
						l-2.29-6.27l-2.27,6.27H736.84z"/>
					<path class="st2" d="M768.57,245.74l2.59,2.32c-3.16,2.88-6.51,4.33-10.04,4.33c-3.78,0-7-1.33-9.66-3.99
						c-2.66-2.66-3.99-5.88-3.99-9.66c0-3.77,1.33-6.99,3.99-9.66c2.66-2.67,5.88-4.01,9.66-4.01c3.53,0,6.88,1.44,10.04,4.33
						l-2.59,2.36c-2.38-2.12-4.87-3.18-7.45-3.18c-2.8,0-5.19,0.99-7.18,2.97c-1.99,1.98-2.98,4.38-2.98,7.19
						c0,2.82,0.99,5.22,2.98,7.2s4.38,2.97,7.18,2.97C763.7,248.91,766.19,247.86,768.57,245.74z"/>
					<path class="st2" d="M779.12,225.37v26.74h-3.46v-26.74H779.12z"/>
					<path class="st2" d="M807.42,229.03c2.67,2.67,4.01,5.9,4.01,9.68c0,3.78-1.34,7-4.01,9.68c-2.67,2.67-5.9,4.01-9.68,4.01
						c-3.78,0-7-1.34-9.68-4.01c-2.67-2.67-4.01-5.9-4.01-9.68c0-3.78,1.34-7,4.01-9.68c2.67-2.67,5.9-4.01,9.68-4.01
						C801.52,225.02,804.75,226.36,807.42,229.03z M797.75,228.51c-2.82,0-5.22,0.99-7.21,2.98c-1.99,1.99-2.98,4.39-2.98,7.21
						c0,2.82,1,5.22,2.99,7.22c1.99,1.99,4.39,2.99,7.2,2.99c2.82,0,5.22-1,7.21-2.99c1.99-1.99,2.98-4.4,2.98-7.22
						c0-2.82-0.99-5.22-2.98-7.21C802.97,229.51,800.57,228.51,797.75,228.51z M798.77,219.05h4.21l-4.55,4.66h-3.29L798.77,219.05z
						"/>
					<path class="st2" d="M816.04,225.37h3.16l11.03,19.08v-19.08h3.48v26.74h-3.03l-11.18-19.32v19.32h-3.46V225.37z"/>
					<path class="st1" d="M854.35,225.37v26.74h-3.46v-26.74H854.35z"/>
					<path class="st1" d="M859.71,225.37h3.16l11.03,19.08v-19.08h3.48v26.74h-3.03l-11.18-19.32v19.32h-3.46V225.37z"/>
					<path class="st1" d="M890.42,228.83v23.28h-3.48v-23.28h-6.23v-3.46h15.94v3.46H890.42z"/>
					<path class="st1" d="M914.4,225.37v3.46h-10.94V237h10.94v3.46h-10.94v8.17h10.94v3.48H900v-26.74H914.4z"/>
					<path class="st1" d="M925.61,243.55h-3.16v8.56H919v-26.74h7.59c2.15,0.29,3.97,1.18,5.45,2.66c1.77,1.78,2.66,3.92,2.66,6.42
						c0,2.52-0.89,4.67-2.66,6.45c-1.23,1.23-2.16,1.92-2.81,2.07l5.93,9.14h-4.19L925.61,243.55z M922.46,228.85v11.23h3.16
						c1.54,0,2.85-0.55,3.95-1.65c1.1-1.1,1.65-2.43,1.65-3.99c0-1.55-0.55-2.87-1.65-3.96c-1.1-1.09-2.41-1.64-3.95-1.64H922.46z"
						/>
					<path class="st1" d="M938.56,225.37h3.16l11.03,19.08v-19.08h3.48v26.74h-3.03l-11.18-19.32v19.32h-3.46V225.37z"/>
					<path class="st1" d="M971.17,225.37l9.72,26.74h-3.68l-3.44-9.46h-7.09l-3.42,9.46h-3.69l9.73-26.74H971.17z M972.52,239.19
						l-2.29-6.27l-2.27,6.27H972.52z"/>
					<path class="st1" d="M1004.25,245.74l2.59,2.32c-3.16,2.88-6.51,4.33-10.04,4.33c-3.78,0-7-1.33-9.66-3.99
						c-2.66-2.66-3.99-5.88-3.99-9.66c0-3.77,1.33-6.99,3.99-9.66c2.66-2.67,5.88-4.01,9.66-4.01c3.53,0,6.88,1.44,10.04,4.33
						l-2.59,2.36c-2.38-2.12-4.87-3.18-7.45-3.18c-2.8,0-5.19,0.99-7.18,2.97c-1.99,1.98-2.98,4.38-2.98,7.19
						c0,2.82,0.99,5.22,2.98,7.2s4.38,2.97,7.18,2.97C999.38,248.91,1001.87,247.86,1004.25,245.74z"/>
					<path class="st1" d="M1014.8,225.37v26.74h-3.46v-26.74H1014.8z"/>
					<path class="st1" d="M1043.1,229.03c2.67,2.67,4.01,5.9,4.01,9.68c0,3.78-1.34,7-4.01,9.68c-2.67,2.67-5.9,4.01-9.68,4.01
						c-3.78,0-7-1.34-9.67-4.01c-2.67-2.67-4.01-5.9-4.01-9.68c0-3.78,1.34-7,4.01-9.68c2.67-2.67,5.9-4.01,9.67-4.01
						C1037.2,225.02,1040.43,226.36,1043.1,229.03z M1033.43,228.51c-2.82,0-5.22,0.99-7.21,2.98c-1.99,1.99-2.98,4.39-2.98,7.21
						c0,2.82,1,5.22,2.99,7.22c1.99,1.99,4.39,2.99,7.2,2.99c2.82,0,5.22-1,7.21-2.99c1.99-1.99,2.98-4.4,2.98-7.22
						c0-2.82-0.99-5.22-2.98-7.21C1038.65,229.51,1036.24,228.51,1033.43,228.51z"/>
					<path class="st1" d="M1051.72,225.37h3.16l11.03,19.08v-19.08h3.48v26.74h-3.03l-11.18-19.32v19.32h-3.46V225.37z"/>
					<path class="st1" d="M1084.33,225.37l9.72,26.74h-3.68l-3.44-9.46h-7.09l-3.42,9.46h-3.69l9.73-26.74H1084.33z M1085.68,239.19
						l-2.29-6.27l-2.27,6.27H1085.68z"/>
					<path class="st1" d="M1097.39,252.11v-26.74h3.46v23.26h9.56v3.48H1097.39z"/>
				</g>
			</g>
			<g>
				<path class="st1" d="M629.55,324.3l7.69,6.92c-9.42,8.56-19.38,12.83-29.88,12.8c-11.22-0.02-20.79-4-28.68-11.93
					c-7.9-7.93-11.84-17.51-11.81-28.73c0.02-11.19,4-20.75,11.93-28.68c7.93-7.93,17.51-11.89,28.73-11.86
					c10.5,0.02,20.44,4.33,29.82,12.92l-7.71,6.99c-7.07-6.3-14.45-9.46-22.13-9.48c-8.31-0.02-15.43,2.92-21.35,8.8
					c-5.92,5.88-8.89,13-8.91,21.34c-0.02,8.38,2.92,15.52,8.82,21.42c5.9,5.91,13,8.87,21.31,8.88
					C615.06,333.71,622.45,330.58,629.55,324.3z"/>
				<path class="st1" d="M717.9,274.81c7.93,7.96,11.89,17.55,11.86,28.78c-0.02,11.22-4.01,20.8-11.98,28.73
					c-7.96,7.93-17.55,11.88-28.78,11.86c-11.22-0.02-20.8-4.01-28.73-11.98c-7.93-7.96-11.88-17.56-11.86-28.78
					c0.02-11.22,4.01-20.8,11.98-28.73c7.96-7.93,17.55-11.89,28.78-11.86S709.97,266.85,717.9,274.81z M689.15,273.21
					c-8.38-0.02-15.53,2.92-21.45,8.82c-5.92,5.9-8.89,13.04-8.91,21.41c-0.02,8.38,2.93,15.54,8.85,21.47
					c5.91,5.94,13.05,8.92,21.39,8.93c8.38,0.02,15.52-2.93,21.45-8.85c5.92-5.92,8.89-13.06,8.91-21.44
					c0.02-8.38-2.92-15.52-8.82-21.45C704.66,276.2,697.53,273.23,689.15,273.21z"/>
				<path class="st1" d="M770.07,264.04l28.75,79.52l-10.93-0.02l-10.18-28.13l-21.06-0.04l-10.24,28.09l-10.98-0.02l29.06-79.41
					L770.07,264.04z M774.01,305.12l-6.77-18.64l-6.79,18.61L774.01,305.12z"/>
				<path class="st1" d="M868.29,324.77l7.69,6.92c-9.42,8.56-19.38,12.82-29.88,12.8c-11.22-0.02-20.79-4-28.68-11.93
					s-11.84-17.51-11.81-28.73c0.02-11.19,4-20.75,11.93-28.68c7.93-7.93,17.51-11.89,28.73-11.86c10.5,0.02,20.44,4.33,29.82,12.92
					l-7.71,6.99c-7.07-6.3-14.45-9.46-22.13-9.48c-8.31-0.02-15.43,2.92-21.35,8.8c-5.92,5.88-8.89,12.99-8.91,21.34
					c-0.02,8.38,2.92,15.52,8.82,21.42c5.9,5.91,13,8.87,21.31,8.88C853.8,334.18,861.19,331.05,868.29,324.77z"/>
				<path class="st1" d="M898.66,310.88l-0.06,32.88l-10.28-0.02l0.16-79.46l10.28,0.02l-0.07,36.3l24.53,0.05l0.07-36.3l10.28,0.02
					l-0.16,79.46l-10.28-0.02l0.06-32.88L898.66,310.88z"/>
				<path class="st1" d="M959.74,264.41l-0.16,79.46l-10.28-0.02l0.16-79.46L959.74,264.41z"/>
				<path class="st1" d="M975.68,264.44l9.39,0.02l32.67,56.78l0.11-56.72l10.33,0.02l-0.16,79.46l-8.99-0.02l-33.11-57.48
					l-0.11,57.41l-10.28-0.02L975.68,264.44z"/>
				<path class="st1" d="M1110.34,333.29c-8.19,7.8-17.56,11.69-28.08,11.67c-11.22-0.02-20.79-4-28.68-11.93
					c-7.9-7.93-11.84-17.51-11.81-28.73c0.02-11.19,4-20.75,11.93-28.68c7.93-7.93,17.51-11.89,28.73-11.86
					c10.5,0.02,20.44,4.33,29.82,12.92l-7.71,6.99c-7.07-6.3-14.45-9.46-22.13-9.48c-8.31-0.02-15.43,2.92-21.35,8.8
					c-5.92,5.88-8.89,12.99-8.91,21.34c-0.02,8.38,2.92,15.52,8.82,21.42c5.9,5.91,13,8.87,21.31,8.88
					c7.15,0.01,13.08-1.86,17.79-5.63l0.05-23.99l10.28,0.02L1110.34,333.29z"/>
			</g>
			<g>
				<path class="st2" d="M590.5,288.78c4.66,0.02,8.29,1.34,10.89,3.96c2.85,2.88,4.28,6.34,4.28,10.37c0,4.05-1.43,7.51-4.28,10.37
					c-2.61,2.62-6.24,3.94-10.89,3.96h-2.72v-28.67H590.5z M591.49,292.56v21.12c2.95,0,5.37-0.95,7.26-2.85
					c2.13-2.13,3.19-4.7,3.19-7.72c0-3.01-1.06-5.58-3.19-7.72C596.86,293.5,594.44,292.56,591.49,292.56z"/>
				<path class="st2" d="M625.62,288.78v3.71h-11.74v8.76h11.74v3.71h-11.74v8.76h11.74v3.73h-15.44v-28.67H625.62z"/>
			</g>
		</g>
	</g>
</g>
</svg>
